<?xml version="1.0" standalone="no"?>
<!DOCTYPE svg PUBLIC "-//W3C//DTD SVG 20010904//EN"
 "http://www.w3.org/TR/2001/REC-SVG-20010904/DTD/svg10.dtd">
<svg version="1.0" xmlns="http://www.w3.org/2000/svg"
 width="260.000000pt" height="260.000000pt" viewBox="0 0 260.000000 260.000000"
 preserveAspectRatio="xMidYMid meet">
<metadata>
Created by potrace 1.11, written by Peter Selinger 2001-2013
</metadata>
<g transform="translate(0.000000,260.000000) scale(0.100000,-0.100000)"
fill="#000000" stroke="none">
<path d="M1156 2590 c-309 -39 -561 -162 -776 -379 -156 -157 -249 -309 -314
-511 -48 -148 -61 -233 -61 -400 0 -163 13 -251 57 -390 103 -325 339 -606
638 -759 98 -50 239 -105 248 -97 2 3 -21 114 -51 248 -156 674 -247 1174
-247 1340 1 172 74 290 222 362 l70 34 -106 7 c-58 4 -112 5 -121 1 -10 -3
-15 0 -15 12 1 27 25 53 75 77 l46 22 -48 18 c-88 33 -75 37 97 33 149 -4 173
-7 248 -33 46 -15 108 -45 138 -67 30 -21 83 -47 117 -59 123 -41 210 -112
280 -230 62 -105 89 -204 95 -346 4 -105 7 -123 21 -123 9 0 90 23 181 51 176
54 233 59 287 24 59 -39 33 -74 -111 -144 -204 -100 -377 -146 -510 -135 -105
8 -156 -9 -156 -55 0 -47 9 -60 62 -87 92 -47 207 -48 432 -5 150 29 196 27
196 -8 0 -24 -35 -54 -105 -89 -89 -45 -139 -56 -250 -55 -135 0 -271 29 -407
88 -16 6 -18 0 -18 -53 0 -79 23 -199 60 -308 16 -49 30 -89 30 -89 0 0 -21 1
-46 3 -27 3 -63 -3 -90 -13 l-45 -17 -83 36 c-102 43 -167 61 -191 52 -16 -6
-17 -17 -12 -134 7 -132 25 -225 51 -250 19 -20 45 -12 141 43 68 39 84 44
103 35 55 -25 154 -5 188 37 20 25 23 26 43 13 12 -8 44 -64 72 -125 27 -60
51 -110 53 -112 1 -2 32 6 67 18 322 105 610 361 758 672 84 177 122 349 122
557 0 149 -17 265 -57 391 -142 451 -530 795 -994 883 -100 19 -294 27 -384
16z"/>
<path d="M1480 1823 c-19 -7 -50 -34 -50 -43 0 -4 20 0 44 8 36 13 53 14 85 6
48 -13 44 1 -5 22 -35 15 -49 16 -74 7z"/>
<path d="M811 1773 c-17 -16 -32 -43 -36 -63 l-6 -35 22 33 c29 44 67 62 131
63 l53 1 -35 13 c-57 22 -96 18 -129 -12z"/>
<path d="M1515 1605 c-45 -44 -25 -117 35 -130 37 -8 76 14 91 52 29 76 -68
136 -126 78z m103 -22 c5 -17 -26 -29 -40 -15 -6 6 -7 15 -3 22 9 14 37 9 43
-7z"/>
<path d="M925 1581 c-59 -25 -77 -101 -34 -147 32 -34 96 -34 129 1 36 38 33
90 -8 126 -33 30 -52 34 -87 20z m85 -50 c0 -27 -19 -36 -37 -18 -18 18 -9 37
18 37 12 0 19 -7 19 -19z"/>
</g>
</svg>
