<?xml version="1.0" encoding="UTF-8"?>
<svg width="108px" height="108px" viewBox="0 0 108 108" version="1.1" xmlns="http://www.w3.org/2000/svg" xmlns:xlink="http://www.w3.org/1999/xlink">
    <!-- Generator: Sketch 41.2 (35397) - http://www.bohemiancoding.com/sketch -->
    <title>Untitled</title>
    <desc>Created with Sketch.</desc>
    <defs></defs>
    <g id="Page-1" stroke="none" stroke-width="1" fill="none" fill-rule="evenodd">
        <g id="community">
            <g id="Group" fill="#FFFFFF">
                <path d="M54,0 C83.823,0 108,24.177 108,54 C108,83.824 83.823,108 54,108 C24.177,108 0,83.824 0,54 C0,24.177 24.177,0 54,0 Z" id="base_22_"></path>
                <path d="M47.964,69.994 C42.875,69.994 38.77,69.361 35.454,68.294 L26.986,74.965 L28.405,64.569 C23.058,60.163 21.992,53.935 21.992,49.25 C21.992,41.175 25.172,28.006 48.003,28.006 C70.834,28.006 74.005,40.137 74.005,48.212 C74.007,56.287 70.796,69.994 47.964,69.994 Z" id="Shape"></path>
                <path d="M79.938,76.092 L81.013,83.965 L73.905,78.365 C71.939,78.767 69.663,78.996 67.026,78.996 C50.34,78.996 47.994,69.205 47.994,63.437 C47.994,57.669 50.311,49.004 66.997,49.004 C83.682,49.004 86.006,58.41 86.006,64.177 C86.006,67.887 85.05,72.947 79.938,76.092 Z" id="Shape"></path>
                <path d="M75,66 C73.896,66 73,65.104 73,64 C73,62.895 73.896,62 75,62 C76.104,62 77,62.895 77,64 C77,65.104 76.104,66 75,66 Z M67,66 C65.896,66 65,65.104 65,64 C65,62.895 65.896,62 67,62 C68.104,62 69,62.895 69,64 C69,65.104 68.104,66 67,66 Z M59,66 C57.896,66 57,65.104 57,64 C57,62.895 57.896,62 59,62 C60.104,62 61,62.895 61,64 C61,65.104 60.104,66 59,66 Z" id="Shape"></path>
            </g>
            <g id="Group">
                <g id="base_21_-Clipped" fill="#CDD1D4">
                    <path d="M54,0 C83.823,0 108,24.177 108,54 C108,83.824 83.823,108 54,108 C24.177,108 0,83.824 0,54 C0,24.177 24.177,0 54,0 Z" id="base_21_"></path>
                </g>
                <path d="M47.964,69.994 C42.875,69.994 38.77,69.361 35.454,68.294 L26.986,74.965 L28.405,64.569 C23.058,60.163 21.992,53.935 21.992,49.25 C21.992,41.175 25.172,28.006 48.003,28.006 C70.834,28.006 74.005,40.137 74.005,48.212 C74.007,56.287 70.796,69.994 47.964,69.994 Z" id="Shape" fill="#FFFFFF"></path>
                <path d="M79.938,76.092 L81.013,83.965 L73.905,78.365 C71.939,78.767 69.663,78.996 67.026,78.996 C50.34,78.996 47.994,69.205 47.994,63.437 C47.994,57.669 50.311,49.004 66.997,49.004 C83.682,49.004 86.006,58.41 86.006,64.177 C86.006,67.887 85.05,72.947 79.938,76.092 Z" id="Shape" fill="#434A50"></path>
                <path d="M75,66 C73.896,66 73,65.104 73,64 C73,62.895 73.896,62 75,62 C76.104,62 77,62.895 77,64 C77,65.104 76.104,66 75,66 Z M67,66 C65.896,66 65,65.104 65,64 C65,62.895 65.896,62 67,62 C68.104,62 69,62.895 69,64 C69,65.104 68.104,66 67,66 Z M59,66 C57.896,66 57,65.104 57,64 C57,62.895 57.896,62 59,62 C60.104,62 61,62.895 61,64 C61,65.104 60.104,66 59,66 Z" id="Shape" fill="#FFFFFF"></path>
            </g>
        </g>
    </g>
</svg>