<?xml version="1.0" encoding="utf-8"?>
<!-- Generator: Adobe Illustrator 16.0.0, SVG Export Plug-In . SVG Version: 6.00 Build 0)  -->
<!DOCTYPE svg PUBLIC "-//W3C//DTD SVG 1.1//EN" "http://www.w3.org/Graphics/SVG/1.1/DTD/svg11.dtd">
<svg version="1.1" xmlns="http://www.w3.org/2000/svg" xmlns:xlink="http://www.w3.org/1999/xlink" x="0px" y="0px" width="108px"
	 height="108px" viewBox="0 0 108 108" enable-background="new 0 0 108 108" xml:space="preserve">
<g id="community">
	<g>
		<path id="base_22_" fill-rule="evenodd" clip-rule="evenodd" fill="#FFFFFF" d="M54,0c29.823,0,54,24.177,54,54
			c0,29.824-24.177,54-54,54S0,83.824,0,54C0,24.177,24.177,0,54,0z"/>
		<path fill-rule="evenodd" clip-rule="evenodd" fill="#FFFFFF" d="M47.964,69.994c-5.089,0-9.194-0.633-12.51-1.7l-8.468,6.671
			l1.419-10.396c-5.347-4.406-6.413-10.634-6.413-15.319c0-8.075,3.18-21.244,26.011-21.244s26.002,12.131,26.002,20.206
			C74.007,56.287,70.796,69.994,47.964,69.994z"/>
		<path fill-rule="evenodd" clip-rule="evenodd" fill="#FFFFFF" d="M79.938,76.092l1.075,7.873l-7.108-5.6
			c-1.966,0.402-4.242,0.631-6.879,0.631c-16.686,0-19.032-9.791-19.032-15.559s2.317-14.433,19.003-14.433
			c16.685,0,19.009,9.406,19.009,15.173C86.006,67.887,85.05,72.947,79.938,76.092z"/>
		<path fill-rule="evenodd" clip-rule="evenodd" fill="#FFFFFF" d="M75,66c-1.104,0-2-0.896-2-2c0-1.105,0.896-2,2-2s2,0.895,2,2
			C77,65.104,76.104,66,75,66z M67,66c-1.104,0-2-0.896-2-2c0-1.105,0.896-2,2-2s2,0.895,2,2C69,65.104,68.104,66,67,66z M59,66
			c-1.104,0-2-0.896-2-2c0-1.105,0.896-2,2-2s2,0.895,2,2C61,65.104,60.104,66,59,66z"/>
	</g>
	<g>
		<defs>
			<filter id="Adobe_OpacityMaskFilter" filterUnits="userSpaceOnUse" x="0" y="0" width="108" height="108">
				<feColorMatrix  type="matrix" values="1 0 0 0 0  0 1 0 0 0  0 0 1 0 0  0 0 0 1 0"/>
			</filter>
		</defs>
		<mask maskUnits="userSpaceOnUse" x="0" y="0" width="108" height="108" id="base_11_">
		</mask>
		<path id="base_21_" mask="url(#base_11_)" fill-rule="evenodd" clip-rule="evenodd" fill="#FFFFFF" d="M54,0
			c29.823,0,54,24.177,54,54c0,29.824-24.177,54-54,54S0,83.824,0,54C0,24.177,24.177,0,54,0z"/>
		<path fill-rule="evenodd" clip-rule="evenodd" fill="#CDD1D4" d="M47.964,69.994c-5.089,0-9.194-0.633-12.51-1.7l-8.468,6.671
			l1.419-10.396c-5.347-4.406-6.413-10.634-6.413-15.319c0-8.075,3.18-21.244,26.011-21.244s26.002,12.131,26.002,20.206
			C74.007,56.287,70.796,69.994,47.964,69.994z"/>
		<path fill-rule="evenodd" clip-rule="evenodd" fill="#434A50" d="M79.938,76.092l1.075,7.873l-7.108-5.6
			c-1.966,0.402-4.242,0.631-6.879,0.631c-16.686,0-19.032-9.791-19.032-15.559s2.317-14.433,19.003-14.433
			c16.685,0,19.009,9.406,19.009,15.173C86.006,67.887,85.05,72.947,79.938,76.092z"/>
		<path fill-rule="evenodd" clip-rule="evenodd" fill="#FFFFFF" d="M75,66c-1.104,0-2-0.896-2-2c0-1.105,0.896-2,2-2s2,0.895,2,2
			C77,65.104,76.104,66,75,66z M67,66c-1.104,0-2-0.896-2-2c0-1.105,0.896-2,2-2s2,0.895,2,2C69,65.104,68.104,66,67,66z M59,66
			c-1.104,0-2-0.896-2-2c0-1.105,0.896-2,2-2s2,0.895,2,2C61,65.104,60.104,66,59,66z"/>
	</g>
</g>
</svg>