<?xml version="1.0" encoding="utf-8"?>
<!-- Generator: Adobe Illustrator 16.0.0, SVG Export Plug-In . SVG Version: 6.00 Build 0)  -->
<!DOCTYPE svg PUBLIC "-//W3C//DTD SVG 1.1//EN" "http://www.w3.org/Graphics/SVG/1.1/DTD/svg11.dtd">
<svg version="1.1" xmlns="http://www.w3.org/2000/svg" xmlns:xlink="http://www.w3.org/1999/xlink" x="0px" y="0px" width="108px"
	 height="108px" viewBox="0 0 108 108" enable-background="new 0 0 108 108" xml:space="preserve">
<g id="launch">
	<g>
		<path id="base_24_" fill-rule="evenodd" clip-rule="evenodd" fill="#FFFFFF" d="M54,0c29.823,0,54,24.177,54,54
			c0,29.824-24.177,54-54,54S0,83.824,0,54C0,24.177,24.177,0,54,0z"/>
		<path fill-rule="evenodd" clip-rule="evenodd" fill="#FFFFFF" d="M54,108c-14.888,0-28.367-6.026-38.137-15.771
			c1.812-2.551,4.779-4.219,8.143-4.219c5.131,0,9.354,3.874,9.924,8.86c0.023-0.283,0.07-0.561,0.07-0.85
			c0-4.104-2.469-7.628-5.997-9.173c2.739-2.962,6.647-4.827,11-4.827c7.898,0,14.356,6.108,14.941,13.857
			c0.017-0.287,0.058-0.567,0.058-0.858c0-4.248-1.773-8.076-4.612-10.806l2.595-22.221h4l1.977,16.928
			c-1.821,1.813-2.949,4.324-2.949,7.1c0,0.337,0.018,0.671,0.051,1c0.501-5.06,4.761-9.011,9.943-9.011
			c4.489,0,8.287,2.965,9.549,7.047c-5.587,2.183-9.551,7.604-9.551,13.963c0,0.358,0.022,0.711,0.047,1.062
			c0.486-7.845,6.984-14.062,14.952-14.062c4.995,0,9.408,2.452,12.134,6.207C82.368,101.974,68.889,108,54,108z"/>
		<path fill-rule="evenodd" clip-rule="evenodd" fill="#FFFFFF" d="M67.961,54.638c-0.188,1.36-1.049,1.897-2.186,0.76
			c-0.728-0.727-2.774-2.829-2.774-2.829c-0.964-0.964-2.157-0.702-3.562,0.703C57.059,55.652,57,58.008,57,58.008
			c0,0.553-0.447,1-1,1l-4.011,0.004c-0.552,0-1-0.449-1-1c0,0,0.255-2.355-2.126-4.735c-1.404-1.405-2.785-1.667-3.75-0.703
			c0,0-2.047,2.102-2.774,2.829c-1.138,1.139-1.998,0.6-2.186-0.76c0,0-0.687-7.289,0.898-10.156
			c0.646-1.17,2.399-1.861,3.563-1.237C40.068,28.944,45.815,14.216,54,6.005c7.605,7.763,14.14,22.415,9.371,37.203
			c1.152-0.544,2.718,0.134,3.349,1.274C68.304,47.35,67.961,54.638,67.961,54.638z M56.809,20.17c-1.562-1.562-4.095-1.562-5.656,0
			c-1.562,1.562-1.562,4.095,0,5.657c1.562,1.562,4.095,1.562,5.656,0C58.371,24.265,58.371,21.732,56.809,20.17z"/>
	</g>
	<g>
		<defs>
			<filter id="Adobe_OpacityMaskFilter" filterUnits="userSpaceOnUse" x="0" y="0" width="108" height="108">
				<feColorMatrix  type="matrix" values="1 0 0 0 0  0 1 0 0 0  0 0 1 0 0  0 0 0 1 0"/>
			</filter>
		</defs>
		<mask maskUnits="userSpaceOnUse" x="0" y="0" width="108" height="108" id="base_11_">
		</mask>
		<path id="base_16_" mask="url(#base_11_)" fill-rule="evenodd" clip-rule="evenodd" fill="#FFFFFF" d="M54,0
			c29.823,0,54,24.177,54,54c0,29.824-24.177,54-54,54S0,83.824,0,54C0,24.177,24.177,0,54,0z"/>
		<path fill-rule="evenodd" clip-rule="evenodd" fill="#CDD1D4" d="M54,108c-14.888,0-28.367-6.026-38.137-15.771
			c1.812-2.551,4.779-4.219,8.143-4.219c5.131,0,9.354,3.874,9.924,8.86c0.023-0.283,0.07-0.561,0.07-0.85
			c0-4.104-2.469-7.628-5.997-9.173c2.739-2.962,6.647-4.827,11-4.827c7.898,0,14.356,6.108,14.941,13.857
			c0.017-0.287,0.058-0.567,0.058-0.858c0-4.248-1.773-8.076-4.612-10.806l2.595-22.221h4l1.977,16.928
			c-1.821,1.813-2.949,4.324-2.949,7.1c0,0.337,0.018,0.671,0.051,1c0.501-5.06,4.761-9.011,9.943-9.011
			c4.489,0,8.287,2.965,9.549,7.047c-5.587,2.183-9.551,7.604-9.551,13.963c0,0.358,0.022,0.711,0.047,1.062
			c0.486-7.845,6.984-14.062,14.952-14.062c4.995,0,9.408,2.452,12.134,6.207C82.368,101.974,68.889,108,54,108z"/>
		<path fill-rule="evenodd" clip-rule="evenodd" fill="#434A50" d="M67.961,54.638c-0.188,1.36-1.049,1.897-2.186,0.76
			c-0.728-0.727-2.774-2.829-2.774-2.829c-0.964-0.964-2.157-0.702-3.562,0.703C57.059,55.652,57,58.008,57,58.008
			c0,0.553-0.447,1-1,1l-4.011,0.004c-0.552,0-1-0.449-1-1c0,0,0.255-2.355-2.126-4.735c-1.404-1.405-2.785-1.667-3.75-0.703
			c0,0-2.047,2.102-2.774,2.829c-1.138,1.139-1.998,0.6-2.186-0.76c0,0-0.687-7.289,0.898-10.156
			c0.646-1.17,2.399-1.861,3.563-1.237C40.068,28.944,45.815,14.216,54,6.005c7.605,7.763,14.14,22.415,9.371,37.203
			c1.152-0.544,2.718,0.134,3.349,1.274C68.304,47.35,67.961,54.638,67.961,54.638z M56.809,20.17c-1.562-1.562-4.095-1.562-5.656,0
			c-1.562,1.562-1.562,4.095,0,5.657c1.562,1.562,4.095,1.562,5.656,0C58.371,24.265,58.371,21.732,56.809,20.17z"/>
	</g>
</g>
</svg>