<svg version="1.1" xmlns="http://www.w3.org/2000/svg" xmlns:xlink="http://www.w3.org/1999/xlink" x="0px" y="0px" width="372px" height="372px" viewBox="0 0 372 372" style="enable-background:new 0 0 372 372;" xml:space="preserve"><g><g><path fill="#FFF" d="M186,0C83.3,0,0,83.3,0,186s83.3,186,186,186s186-83.3,186-186S288.7,0,186,0z M227.8,353.9  c-9.1-15.2-40.2-69-40.2-108.3c0-86.1,57.8-12.4,57.8-81.1c0-16.5-8.2-73.8-58.1-85.7C175.1,62.5,146,46.7,100,53.1  c0,0,7.8,2.2,16.4,6.7c0,0-16.6,2.2-17.5,13.7c0,0,33-1.8,51.8,4.3c-43.1,5.6-65.3,28-61.2,69.2c5.9,60.3,32,170,40,202.5  C61.7,326.1,13,261.8,13,186C13,90.5,90.4,13,186,13s173,77.5,173,173C359,267.1,303.2,335.2,227.8,353.9z"/></g></g><path fill="#D5D7D8" d="M150.2,77.7c-18.9-5.9-51.3-4.1-51.3-4.1c0.1-1.7,0.6-3.3,1.4-4.6c7.4-0.1,34.6,0.1,52.1,8.6 C152.5,77.5,151.4,77.5,150.2,77.7z M110.5,92c-9.7,10.4-18.2,23.2-15.1,45.2c12.8,92.5,43.3,216,43.3,216l-9.3-3.9 c-8-32.9-34-142.1-39.9-202.2C87.1,121.8,94.5,103.6,110.5,92z M115.9,59.9c0.3-0.1,0.5-0.1,0.5-0.1c-8.6-4.4-16.4-6.7-16.4-6.7 c2.3-0.3,4.5-0.6,6.7-0.8c2.6,1.4,7.1,3.9,12.3,7.4C119.1,59.8,117.8,59.8,115.9,59.9z"/><path fill="#FED30A" d="M177.1,213.7c0-22.1,30.1-29.1,41.3-29.1c30.7,0,73.9-19.7,84.8-19.3c10.9,0.3,17.9,4.7,17.9,9.8 c0,7.4-61.2,34.9-85.2,32.6c-22.6-2.1-27.9,0.4-27.9,9.8c0,8.1,16.3,15.3,34.3,15.3c26.9,0,53.4-12.2,61.5-6.2 c6.9,5.1-18.5,23-47.4,23S177.1,235.7,177.1,213.7z"/><path fill="#65BB46" d="M144.2,297.6c4.3-4,40.4,13.3,40.4,13.3s4.6-5.5,15.9-5.2c11.3,0.3,13.6,4.3,13.6,4.3s28.3-22.2,37.7-19.9 c5.8,1.4,6.5,50.9-0.1,54.3c-6.6,3.5-37.8-10.7-37.8-10.7s-5.2,8.4-15.6,8.4s-17-2-17-2s-22.3,16.1-29.5,14 C143.3,351.6,139.9,301.6,144.2,297.6z"/><path fill="#43A244" d="M182.7,313.6c-2.9,2.9-5.8,23.7,0.5,27.5c6.4,3.8,24.3,1.4,28.2-3.6c1.9-2.4-24.1,4.8-26.7,0.5 C179.6,329.8,185.5,310.7,182.7,313.6z"/><path fill="#2D4F8D" d="M203.1,121.7c4.8-12.1,19.3-11.7,27.3-1.4C220.1,114.3,210.7,115.6,203.1,121.7z M138.3,171.4 c-7,0-12.7-5.7-12.7-12.7s5.7-12.7,12.7-12.7s12.7,5.7,12.7,12.7S145.3,171.4,138.3,171.4z M146.7,154.1c0-2-1.7-3.7-3.7-3.7 s-3.7,1.7-3.7,3.7s1.7,3.7,3.7,3.7S146.7,156.1,146.7,154.1z M113,134.2c-1.2-20.7,17.3-20.2,28.2-13.5 C125.6,118.9,118.4,121.4,113,134.2z M223.5,140c6.1,0,11,4.9,11,11s-4.9,11-11,11s-11-4.9-11-11S217.5,140,223.5,140z M227.6,150.2 c1.8,0,3.2-1.4,3.2-3.2s-1.4-3.2-3.2-3.2s-3.2,1.4-3.2,3.2C224.4,148.8,225.9,150.2,227.6,150.2z"/></svg>