<svg version="1.1" xmlns="http://www.w3.org/2000/svg" xmlns:xlink="http://www.w3.org/1999/xlink" x="0px" y="0px" width="108px" height="108px" viewBox="0 0 108 108" enable-background="new 0 0 108 108" xml:space="preserve"><circle fill-rule="evenodd" clip-rule="evenodd" fill="#CDD1D4" cx="54" cy="54" r="54"/><path fill-rule="evenodd" clip-rule="evenodd" fill="#434A50" d="M78.782,42.904c1.01,0.569,1.448,2.086,1.115,3.243 c-0.907,3.148-6.922,7.926-6.922,7.926c-1.094,0.829-1.995,0.513-1.995-1.096c0-1.028,0.038-3.962,0.038-3.962 c0-1.363-1.029-2.022-3.016-2.022c-3.365,0-4.696,1.69-4.696,1.69c-0.39,0.391-1.024,0.391-1.414,0l-2.596-2.59 c-0.39-0.391-0.39-1.024,0-1.414c0,0,1.69-1.331,1.69-4.696c0-1.987-0.659-3.016-2.022-3.016c0,0-2.934,0.039-3.962,0.039 c-1.609,0-1.925-0.901-1.096-1.995c0,0,4.779-6.015,7.927-6.922c1.226-0.353,2.846,0.165,3.325,1.306 C72.109,16.253,86.475,10.012,98,10.012C98,20.901,92.437,35.816,78.782,42.904z M63.953,76.505c0,0,2.389-3.007,3.964-3.461 c0.613-0.177,1.423,0.082,1.662,0.653c3.476-6.571,10.658-9.692,16.421-9.692c0,5.453-2.798,12.919-9.65,16.456 c0.523,0.273,0.768,1.023,0.598,1.612c-0.453,1.574-3.461,3.963-3.461,3.963c-0.547,0.414-0.997,0.256-0.997-0.548 c0-0.514,0.019-1.981,0.019-1.981c0-0.681-0.514-1.011-1.508-1.011c-1.683,0-2.348,0.845-2.348,0.845 c-0.195,0.195-0.512,0.195-0.707,0l-1.298-1.295c-0.195-0.195-0.195-0.512,0-0.707c0,0,0.845-0.665,0.845-2.348 c0-0.994-0.329-1.508-1.011-1.508c0,0-1.467,0.019-1.981,0.019C63.697,77.503,63.539,77.052,63.953,76.505z"/><path fill-rule="evenodd" clip-rule="evenodd" fill="#FFFFFF" d="M85.993,25.992c-2.209,0-4-1.791-4-4c0-2.209,1.791-4,4-4 c2.209,0,4,1.791,4,4C89.993,24.202,88.202,25.992,85.993,25.992z M81.996,69.996c0,1.105-0.895,2-2,2c-1.105,0-2-0.895-2-2 c0-1.104,0.895-2,2-2C81.101,67.996,81.996,68.892,81.996,69.996z M66.501,85.19l-17.831,22.546 c-3.962-0.388-7.794-1.213-11.458-2.41L64.81,83.498L66.501,85.19z M10.105,85.433l46.069-36.435l2.828,2.828L22.568,97.895 C17.763,94.449,13.551,90.237,10.105,85.433z"/></svg>