<svg version="1.1" class="bangs-edu-traffic-light" xmlns="http://www.w3.org/2000/svg" xmlns:xlink="http://www.w3.org/1999/xlink" x="0px" y="0px" width="104px" height="24px" viewBox="0 0 104 24" style="enable-background:new 0 0 104 24;" xml:space="preserve"><path style="fill-rule:evenodd;clip-rule:evenodd;fill:#3FBB52;" d="M92,0c6.6,0,12,5.4,12,12c0,6.6-5.4,12-12,12 s-12-5.4-12-12C80,5.4,85.4,0,92,0z" /><path style="fill-rule:evenodd;clip-rule:evenodd;fill:#FFAE00;" d="M52,0c6.6,0,12,5.4,12,12c0,6.6-5.4,12-12,12 s-12-5.4-12-12C40,5.4,45.4,0,52,0z" /><path style="fill-rule:evenodd;clip-rule:evenodd;fill:#DF5933;" d="M12,0c6.6,0,12,5.4,12,12c0,6.6-5.4,12-12,12 S0,18.6,0,12C0,5.4,5.4,0,12,0z" /></svg>